# xmcd
#
# Track frame offsets: 
#        150
#        10529
#        21075
#        32500
#        42555
#        52954
#        61269
#        76866
#        90033
#        99701
#        110797
#        122627
#        134187
#
# Disc length: 1840 seconds
#
# Revision: 1
# Processed by: cddbd v1.5.2PL0 Copyright (c) Steve Scherf et al.
# Submitted via: ExactAudioCopyFreeDBPlugin 1.0
#
DISCID=9e072e0d
DTITLE=Stompin' Tom Connors - Merry Christmas Everybody
DYEAR=1970
DGENRE=Christmas
TTITLE0=Merry Christmas Everybody
TTITLE1=Merry Bells
TTITLE2=Christmas Angel
TTITLE3=Down On Christmas
TTITLE4=Jingle Jangle Aeroplane
TTITLE5=Kiss Me The New Year In
TTITLE6=Mr. Snowflake
TTITLE7=Story Of Jesus
TTITLE8=An Orphan's Christmas
TTITLE9=One Blue Light
TTITLE10=Gloria
TTITLE11=Our Father
TTITLE12=Christmas Greetings
EXTD=
EXTT0=
EXTT1=
EXTT2=
EXTT3=
EXTT4=
EXTT5=
EXTT6=
EXTT7=
EXTT8=
EXTT9=
EXTT10=
EXTT11=
EXTT12=
PLAYORDER=
